<?xml version="1.0" encoding="UTF-8" standalone="no"?>
<svg width="25px" height="25px" viewBox="0 0 25 25" version="1.1" xmlns="http://www.w3.org/2000/svg" xmlns:xlink="http://www.w3.org/1999/xlink">
    <!-- Generator: sketchtool 40 (33762) - http://www.bohemiancoding.com/sketch -->
    <title>84B8BF64-B50A-4ADA-9973-A8A5985D02CE</title>
    <desc>Created with sketchtool.</desc>
    <defs>
        <polygon id="path-1" points="0.0340909091 25 25 25 25 0 0.0340909091 0"></polygon>
    </defs>
    <g id="Page-1" stroke="none" stroke-width="1" fill="none" fill-rule="evenodd" opacity="0.141907649">
        <g id="LOGIN-SCREEN" transform="translate(-500.000000, -300.000000)">
            <g id="user-(3)" transform="translate(500.000000, 300.000000)">
                <mask id="mask-2" fill="white">
                    <use xlink:href="#path-1"></use>
                </mask>
                <g id="Clip-2"></g>
                <path d="M25,12.5 C25,5.60852273 19.3914773,0 12.5,0 C5.60852273,0 0,5.60852273 0,12.5 C0,16.1397727 1.56477273,19.4227273 4.05738636,21.7085227 L4.04602273,21.7198864 L4.45,22.0613636 C4.47670455,22.0835227 4.50568182,22.1011364 4.53238636,22.1238636 C4.74715909,22.3011364 4.97159091,22.4698864 5.19772727,22.6340909 C5.27102273,22.6875 5.34431818,22.7403409 5.41988636,22.79375 C5.66420455,22.9602273 5.9125,23.1198864 6.16761364,23.26875 C6.22329545,23.3022727 6.27897727,23.3329545 6.33409091,23.3664773 C6.61193182,23.5238636 6.89829545,23.675 7.18863636,23.8102273 C7.21079545,23.8215909 7.23125,23.8301136 7.25340909,23.8414773 C8.20340909,24.2806818 9.21761364,24.6051136 10.2761364,24.7982955 C10.3051136,24.8022727 10.3318182,24.8068182 10.3602273,24.8113636 C10.6886364,24.8693182 11.0215909,24.9136364 11.3590909,24.9443182 C11.3988636,24.9488636 11.4414773,24.9511364 11.48125,24.9556818 C11.8164773,24.9823864 12.15625,25 12.5,25 C12.8397727,25 13.1767045,24.9823864 13.5096591,24.9556818 C13.5522727,24.9511364 13.5943182,24.9488636 13.6363636,24.9465909 C13.9715909,24.9159091 14.3,24.8710227 14.6261364,24.8159091 C14.6551136,24.8113636 14.6840909,24.8045455 14.7130682,24.8 C15.7556818,24.6136364 16.7545455,24.2965909 17.6914773,23.8659091 C17.7267045,23.8505682 17.7625,23.8346591 17.7954545,23.8193182 C18.0772727,23.6863636 18.3505682,23.5443182 18.6193182,23.3931818 C18.6857955,23.3551136 18.7522727,23.3176136 18.81875,23.2778409 C19.0630682,23.1335227 19.3051136,22.9846591 19.5380682,22.8227273 C19.6221591,22.7670455 19.7045455,22.7051136 19.7863636,22.6448864 C19.9863636,22.5028409 20.1835227,22.3545455 20.3721591,22.1988636 C20.4147727,22.1659091 20.4613636,22.1346591 20.5034091,22.1011364 L20.9181818,21.7528409 L20.9051136,21.7420455 C23.4198864,19.4556818 25,16.1596591 25,12.5 L25,12.5 Z M0.910227273,12.5 C0.910227273,6.10795455 6.10795455,0.910227273 12.5,0.910227273 C18.8920455,0.910227273 24.0897727,6.10795455 24.0897727,12.5 C24.0897727,15.9443182 22.5784091,19.0409091 20.1857955,21.1647727 C20.0528409,21.0738636 19.9198864,20.9892045 19.7795455,20.9204545 L15.93125,18.9965909 C15.5875,18.8232955 15.3721591,18.4772727 15.3721591,18.0909091 L15.3721591,16.7460227 C15.4607955,16.6369318 15.55625,16.5125 15.6517045,16.375 C16.1511364,15.6715909 16.5505682,14.8880682 16.8414773,14.0471591 C17.4181818,13.7738636 17.7892045,13.1988636 17.7892045,12.5511364 L17.7892045,10.9397727 C17.7892045,10.5465909 17.6448864,10.1653409 17.3875,9.86306818 L17.3875,7.74147727 C17.4096591,7.50625 17.49375,6.17443182 16.5306818,5.07613636 C15.69375,4.12159091 14.3375,3.63522727 12.5,3.63522727 C10.6625,3.63522727 9.30625,4.12159091 8.46931818,5.07613636 C7.50625,6.17443182 7.59034091,7.50625 7.6125,7.74147727 L7.6125,9.86306818 C7.35511364,10.1630682 7.21079545,10.5465909 7.21079545,10.9397727 L7.21079545,12.5511364 C7.21079545,13.0528409 7.43522727,13.51875 7.81931818,13.8340909 C8.1875,15.2767045 8.94431818,16.36875 9.22613636,16.7369318 L9.22613636,18.0528409 C9.22613636,18.4238636 9.02215909,18.7653409 8.69829545,18.9431818 L5.10227273,20.9028409 C4.98920455,20.9647727 4.87386364,21.0380682 4.76079545,21.1204545 C2.39943182,18.9965909 0.910227273,15.9204545 0.910227273,12.5 L0.910227273,12.5 Z M19.3005682,21.8772727 C19.1409091,21.9926136 18.9784091,22.1056818 18.8142045,22.2125 C18.7386364,22.2613636 18.6636364,22.3102273 18.5880682,22.3590909 C18.3727273,22.4920455 18.1551136,22.6164773 17.93125,22.7363636 C17.8823864,22.7607955 17.8335227,22.7852273 17.7846591,22.8113636 C17.2715909,23.0732955 16.7414773,23.3 16.1977273,23.4818182 C16.1801136,23.4886364 16.1596591,23.4954545 16.1397727,23.5017045 C15.8556818,23.5971591 15.5670455,23.6795455 15.2744318,23.7528409 L15.2721591,23.7528409 C14.9767045,23.8261364 14.6795455,23.8857955 14.3801136,23.9369318 C14.3710227,23.9369318 14.3619318,23.9392045 14.3556818,23.9414773 C14.0738636,23.9857955 13.7875,24.01875 13.5034091,24.0454545 C13.4522727,24.05 13.4011364,24.0522727 13.35,24.0568182 C13.0681818,24.0767045 12.7840909,24.0897727 12.5,24.0897727 C12.2113636,24.0897727 11.925,24.0767045 11.6386364,24.0545455 C11.5897727,24.0522727 11.5392045,24.0477273 11.4903409,24.0431818 C11.2017045,24.01875 10.9153409,23.9835227 10.63125,23.9392045 L10.59375,23.9323864 C9.99204545,23.8301136 9.40170455,23.6840909 8.82443182,23.4909091 C8.80681818,23.4840909 8.78920455,23.4772727 8.77159091,23.4710227 C8.48522727,23.3755682 8.20340909,23.2664773 7.92556818,23.1465909 C7.92329545,23.1465909 7.92102273,23.1465909 7.91931818,23.1443182 C7.65738636,23.03125 7.39943182,22.9068182 7.14431818,22.7738636 C7.11136364,22.75625 7.07784091,22.7403409 7.04431818,22.7227273 C6.81136364,22.5982955 6.58522727,22.4653409 6.36079545,22.3255682 C6.29431818,22.2835227 6.22784091,22.2414773 6.16363636,22.1965909 C5.95681818,22.0636364 5.75284091,21.9215909 5.55511364,21.7727273 C5.53522727,21.7573864 5.51534091,21.7420455 5.49545455,21.7261364 L5.5375,21.7017045 L9.13295455,19.7420455 C9.75,19.4045455 10.1340909,18.7568182 10.1340909,18.0528409 L10.1340909,16.4153409 L10.0295455,16.2886364 C10.01875,16.2772727 9.0375,15.0835227 8.66477273,13.4630682 L8.625,13.2835227 L8.46931818,13.1835227 C8.25,13.0414773 8.11875,12.80625 8.11875,12.5511364 L8.11875,10.9397727 C8.11875,10.7289773 8.20965909,10.53125 8.37159091,10.3823864 L8.52272727,10.2471591 L8.52272727,7.71704545 L8.51818182,7.65738636 C8.51818182,7.64602273 8.38295455,6.55170455 9.15284091,5.675 C9.81022727,4.925 10.9375,4.54545455 12.5,4.54545455 C14.0579545,4.54545455 15.18125,4.92272727 15.8380682,5.66647727 C16.6079545,6.53409091 16.4818182,7.64829545 16.4818182,7.65738636 L16.4772727,10.2494318 L16.6284091,10.3846591 C16.7903409,10.53125 16.88125,10.7289773 16.88125,10.9397727 L16.88125,12.5511364 C16.88125,12.875 16.6590909,13.1704545 16.3443182,13.2681818 L16.1176136,13.3369318 L16.0443182,13.5630682 C15.7761364,14.3954545 15.3943182,15.1653409 14.9102273,15.8494318 C14.7903409,16.0176136 14.675,16.1664773 14.575,16.2818182 L14.4642045,16.4085227 L14.4642045,18.0909091 C14.4642045,18.8232955 14.8704545,19.4823864 15.525,19.8107955 L19.3738636,21.7352273 C19.3982955,21.7460227 19.4227273,21.7596591 19.4471591,21.7727273 C19.3982955,21.8085227 19.3494318,21.8414773 19.3005682,21.8772727 L19.3005682,21.8772727 Z" id="Fill-1" fill="#000000" mask="url(#mask-2)"></path>
            </g>
        </g>
    </g>
</svg>