<?xml version="1.0" encoding="UTF-8" standalone="no"?>
<svg width="13px" height="17px" viewBox="0 0 13 17" version="1.1" xmlns="http://www.w3.org/2000/svg" xmlns:xlink="http://www.w3.org/1999/xlink">
    <!-- Generator: sketchtool 40 (33762) - http://www.bohemiancoding.com/sketch -->
    <title>72968FCB-A341-4319-A2C5-42C164D14528</title>
    <desc>Created with sketchtool.</desc>
    <defs></defs>
    <g id="Page-1" stroke="none" stroke-width="1" fill="none" fill-rule="evenodd">
        <g id="LOGIN-SCREEN" transform="translate(-689.000000, -465.000000)" fill="#FFFFFF">
            <g id="locked" transform="translate(689.000000, 465.000000)">
                <path d="M10.9770556,6.22905992 L10.9770556,4.5738781 C10.9770556,2.21391632 8.90355556,0.295041322 6.35627778,0.295041322 C3.80719444,0.295041322 1.73369444,2.21391632 1.73369444,4.5738781 L1.73369444,6.22905992 C0.750388889,6.40202789 0,7.27645661 0,8.32938533 L0,14.0948616 C0,15.2702324 0.936722222,16.2269039 2.08758333,16.2269039 L10.6231667,16.2269039 C11.7740278,16.2269039 12.71075,15.2702324 12.71075,14.0948616 L12.71075,8.32791012 C12.71075,7.27645661 11.9603611,6.40202789 10.9770556,6.22905992 L10.9770556,6.22905992 Z M2.31038889,4.5738781 C2.31038889,2.53956818 4.12605556,0.88586157 6.35627778,0.88586157 C8.58613889,0.88586157 10.4003611,2.53956818 10.4003611,4.5738781 L10.4003611,6.19586777 L2.31038889,6.19586777 L2.31038889,4.5738781 Z M12.1340556,14.0948616 C12.1340556,14.9449494 11.4555278,15.6379277 10.6231667,15.6379277 L2.08758333,15.6379277 C1.25558333,15.6379277 0.5785,14.9449494 0.5785,14.0948616 L0.5785,8.32791012 C0.5785,7.47819112 1.25558333,6.78668802 2.08758333,6.78668802 L10.6231667,6.78668802 C11.4555278,6.78668802 12.1340556,7.47819112 12.1340556,8.32791012 L12.1340556,14.0948616 Z" id="Fill-1"></path>
                <path d="M6.35627778,8.55546074 C5.71855556,8.55546074 5.19927778,9.08579752 5.19927778,9.73710124 L5.19927778,11.505874 C5.19927778,12.1571777 5.71855556,12.6875145 6.35627778,12.6875145 C6.99219444,12.6875145 7.51147222,12.1571777 7.51147222,11.505874 L7.51147222,9.73710124 C7.51147222,9.08579752 6.99219444,8.55546074 6.35627778,8.55546074 L6.35627778,8.55546074 Z M6.93297222,11.505874 C6.93297222,11.8315258 6.67333333,12.0966942 6.35627778,12.0966942 C6.03741667,12.0966942 5.77777778,11.8315258 5.77777778,11.505874 L5.77777778,9.73710124 C5.77777778,9.41144938 6.03741667,9.14628099 6.35627778,9.14628099 C6.67333333,9.14628099 6.93297222,9.41144938 6.93297222,9.73710124 L6.93297222,11.505874 Z" id="Fill-2"></path>
            </g>
        </g>
    </g>
</svg>